<svg width="34" height="34" viewBox="0 0 34 34" fill="none" xmlns="http://www.w3.org/2000/svg">
<g opacity="0.5">
<path d="M16.9987 12.7502C15.8715 12.7502 14.7905 13.1979 13.9935 13.995C13.1965 14.792 12.7487 15.873 12.7487 17.0002C12.7487 18.1273 13.1965 19.2083 13.9935 20.0054C14.7905 20.8024 15.8715 21.2502 16.9987 21.2502C18.1259 21.2502 19.2069 20.8024 20.0039 20.0054C20.8009 19.2083 21.2487 18.1273 21.2487 17.0002C21.2487 15.873 20.8009 14.792 20.0039 13.995C19.2069 13.1979 18.1259 12.7502 16.9987 12.7502ZM16.9987 9.91683C18.8773 9.91683 20.679 10.6631 22.0074 11.9915C23.3358 13.3199 24.082 15.1215 24.082 17.0002C24.082 18.8788 23.3358 20.6805 22.0074 22.0088C20.679 23.3372 18.8773 24.0835 16.9987 24.0835C15.1201 24.0835 13.3184 23.3372 11.99 22.0088C10.6616 20.6805 9.91537 18.8788 9.91537 17.0002C9.91537 15.1215 10.6616 13.3199 11.99 11.9915C13.3184 10.6631 15.1201 9.91683 16.9987 9.91683ZM26.207 9.56266C26.207 10.0323 26.0205 10.4827 25.6884 10.8148C25.3563 11.1469 24.9059 11.3335 24.4362 11.3335C23.9665 11.3335 23.5161 11.1469 23.184 10.8148C22.8519 10.4827 22.6654 10.0323 22.6654 9.56266C22.6654 9.09301 22.8519 8.64259 23.184 8.31049C23.5161 7.9784 23.9665 7.79183 24.4362 7.79183C24.9059 7.79183 25.3563 7.9784 25.6884 8.31049C26.0205 8.64259 26.207 9.09301 26.207 9.56266ZM16.9987 5.66683C13.4939 5.66683 12.9215 5.67675 11.2909 5.749C10.1803 5.80141 9.43511 5.95016 8.74378 6.21933C8.12895 6.45733 7.68553 6.74208 7.21378 7.21525C6.77037 7.64364 6.42945 8.16666 6.21645 8.74525C5.94728 9.43941 5.79853 10.1832 5.74753 11.2924C5.67386 12.8564 5.66536 13.4032 5.66536 17.0002C5.66536 20.505 5.67528 21.0773 5.74753 22.7079C5.79995 23.8172 5.9487 24.5637 6.21645 25.2537C6.45728 25.8699 6.74061 26.3133 7.21095 26.7837C7.68836 27.2597 8.13178 27.5444 8.74095 27.7796C9.44078 28.0502 10.1859 28.2003 11.2909 28.2513C12.8549 28.325 13.4018 28.3335 16.9987 28.3335C20.5035 28.3335 21.0759 28.3236 22.7064 28.2513C23.8143 28.1989 24.5609 28.0502 25.2522 27.7824C25.8656 27.543 26.3119 27.2582 26.7822 26.7879C27.2596 26.3105 27.5444 25.8671 27.7795 25.2579C28.0487 24.5595 28.1989 23.8129 28.2499 22.7079C28.3235 21.1439 28.332 20.5971 28.332 17.0002C28.332 13.4953 28.3221 12.923 28.2499 11.2924C28.1974 10.1846 28.0487 9.43658 27.7795 8.74525C27.566 8.16725 27.2257 7.64444 26.7836 7.21525C26.3554 6.77161 25.8323 6.43065 25.2536 6.21791C24.5594 5.94875 23.8143 5.8 22.7064 5.749C21.1424 5.67533 20.5956 5.66683 16.9987 5.66683ZM16.9987 2.8335C20.8478 2.8335 21.328 2.84766 22.8382 2.9185C24.3469 2.98933 25.374 3.22591 26.2779 3.57725C27.2129 3.93708 28.0005 4.42441 28.7882 5.21066C29.5086 5.91885 30.066 6.7755 30.4216 7.721C30.7715 8.62341 31.0095 9.65191 31.0804 11.1607C31.1469 12.6708 31.1654 13.1511 31.1654 17.0002C31.1654 20.8492 31.1512 21.3295 31.0804 22.8397C31.0095 24.3484 30.7715 25.3755 30.4216 26.2793C30.067 27.2253 29.5095 28.0822 28.7882 28.7897C28.0798 29.5098 27.2232 30.0671 26.2779 30.4231C25.3754 30.773 24.3469 31.011 22.8382 31.0818C21.328 31.1484 20.8478 31.1668 16.9987 31.1668C13.1496 31.1668 12.6694 31.1527 11.1592 31.0818C9.65045 31.011 8.62336 30.773 7.71953 30.4231C6.77366 30.0682 5.91686 29.5107 5.2092 28.7897C4.48869 28.0816 3.93127 27.2249 3.57578 26.2793C3.22445 25.3769 2.98786 24.3484 2.91703 22.8397C2.85045 21.3295 2.83203 20.8492 2.83203 17.0002C2.83203 13.1511 2.8462 12.6708 2.91703 11.1607C2.98786 9.6505 3.22445 8.62483 3.57578 7.721C3.93028 6.77492 4.48784 5.91803 5.2092 5.21066C5.91707 4.48991 6.7738 3.93245 7.71953 3.57725C8.62336 3.22591 9.64903 2.98933 11.1592 2.9185C12.6694 2.85191 13.1496 2.8335 16.9987 2.8335Z" fill="black"/>
</g>
</svg>
