<svg width="34" height="34" viewBox="0 0 34 34" fill="none" xmlns="http://www.w3.org/2000/svg">
<g opacity="0.5">
<path d="M9.83464 7.08329C9.83426 7.83473 9.53539 8.55525 9.00377 9.08634C8.47215 9.61743 7.75133 9.91558 6.99989 9.9152C6.24844 9.91483 5.52792 9.61595 4.99683 9.08434C4.46574 8.55272 4.16759 7.8319 4.16797 7.08045C4.16834 6.32901 4.46722 5.60849 4.99883 5.0774C5.53045 4.54631 6.25127 4.24816 7.00272 4.24854C7.75417 4.24891 8.47469 4.54778 9.00577 5.0794C9.53686 5.61102 9.83501 6.33184 9.83464 7.08329ZM9.91964 12.0133H4.25297V29.75H9.91964V12.0133ZM18.873 12.0133H13.2346V29.75H18.8163V20.4425C18.8163 15.2575 25.5738 14.7758 25.5738 20.4425V29.75H31.1696V18.5158C31.1696 9.77495 21.168 10.1008 18.8163 14.3933L18.873 12.0133Z" fill="black"/>
</g>
</svg>
