<svg width="34" height="34" viewBox="0 0 34 34" fill="none" xmlns="http://www.w3.org/2000/svg">
<g opacity="0.5">
<path d="M31.3954 8.01281C30.3139 8.49121 29.167 8.80539 27.9926 8.94497C29.2304 8.20467 30.1569 7.03958 30.5993 5.66681C29.4376 6.35814 28.164 6.84264 26.8366 7.10472C25.945 6.15071 24.7631 5.518 23.4748 5.30497C22.1865 5.09193 20.8639 5.3105 19.7126 5.9267C18.5613 6.54289 17.6458 7.52219 17.1085 8.71235C16.5712 9.9025 16.4422 11.2368 16.7414 12.5079C14.3857 12.3898 12.0811 11.7776 9.97727 10.7111C7.87346 9.64453 6.01746 8.14746 4.52978 6.31706C4.00319 7.22153 3.72647 8.24971 3.72795 9.29631C3.72795 11.3505 4.77345 13.1652 6.36295 14.2277C5.42229 14.1981 4.50234 13.9441 3.67978 13.4868V13.5605C3.68007 14.9285 4.15347 16.2544 5.01973 17.3133C5.88599 18.3722 7.0918 19.0989 8.4327 19.3702C7.55949 19.6069 6.64388 19.6417 5.7552 19.4722C6.13326 20.6498 6.87012 21.6797 7.86262 22.4176C8.85511 23.1556 10.0535 23.5647 11.2901 23.5876C10.0611 24.5529 8.65395 25.2664 7.14903 25.6874C5.64411 26.1084 4.07096 26.2287 2.51953 26.0413C5.22777 27.783 8.38042 28.7076 11.6004 28.7046C22.4988 28.7046 28.4587 19.6762 28.4587 11.8463C28.4587 11.5913 28.4516 11.3335 28.4403 11.0813C29.6003 10.2429 30.6015 9.20425 31.3969 8.01422L31.3954 8.01281Z" fill="black"/>
</g>
</svg>
